# xmcd
#
# Track frame offsets: 
#        182
#        24417
#        44942
#        65112
#        83392
#        107650
#        131052
#        159110
#        171562
#
# Disc length: 2856 seconds
#
# Revision: 1
# Processed by: cddbd v1.5.2PL0 Copyright (c) Steve Scherf et al.
# Submitted via: ExactAudioCopy v1.0b3
#
DISCID=760b2609
DTITLE=Ornicar and Daniel Huck - L'incroyable Huck !
DYEAR=1900
DGENRE=Jazz
TTITLE0=Le blues des coccinelles
TTITLE1=Saint turbin
TTITLE2=L'aube se lève sur Ceres
TTITLE3=T'as vu la grosse bulle ?
TTITLE4=Nexus
TTITLE5=Un joli gachis
TTITLE6=Jazoon
TTITLE7=Juste une note à jouer
TTITLE8=A l'année prochaine
EXTD=
EXTT0=
EXTT1=
EXTT2=
EXTT3=
EXTT4=
EXTT5=
EXTT6=
EXTT7=
EXTT8=
PLAYORDER=
